<svg width="493" height="236" viewBox="0 0 493 236" fill="none" xmlns="http://www.w3.org/2000/svg">
<ellipse cx="250" cy="73.5" rx="243" ry="73.5" fill="white"/>
<ellipse cx="250" cy="138.5" rx="243" ry="73.5" fill="white"/>
<path d="M485.5 162.5C485.5 172.408 478.86 181.945 466.613 190.703C454.379 199.452 436.643 207.351 414.682 213.994C370.767 227.277 310.068 235.5 243 235.5C175.932 235.5 115.233 227.277 71.3178 213.994C49.3569 207.351 31.6213 199.452 19.387 190.703C7.14041 181.945 0.5 172.408 0.5 162.5C0.5 152.592 7.14041 143.055 19.387 134.297C31.6213 125.548 49.3569 117.649 71.3178 111.006C115.233 97.7231 175.932 89.5 243 89.5C310.068 89.5 370.767 97.7231 414.682 111.006C436.643 117.649 454.379 125.548 466.613 134.297C478.86 143.055 485.5 152.592 485.5 162.5Z" stroke="#3A3A3A"/>
<path d="M485.5 103.5C485.5 113.408 478.86 122.945 466.613 131.703C454.379 140.452 436.643 148.351 414.682 154.994C370.767 168.277 310.068 176.5 243 176.5C175.932 176.5 115.233 168.277 71.3178 154.994C49.3569 148.351 31.6213 140.452 19.387 131.703C7.14041 122.945 0.5 113.408 0.5 103.5C0.5 93.5923 7.14041 84.0549 19.387 75.2972C31.6213 66.5482 49.3569 58.6487 71.3178 52.0062C115.233 38.7231 175.932 30.5 243 30.5C310.068 30.5 370.767 38.7231 414.682 52.0062C436.643 58.6487 454.379 66.5482 466.613 75.2972C478.86 84.0549 485.5 93.5923 485.5 103.5Z" stroke="#3A3A3A"/>
<rect x="111" y="144.879" width="265.494" height="53" rx="26.5" transform="rotate(-7.11388 111 144.879)" fill="#3A3A3A"/>
<path d="M201.008 149.865L201.276 152.008L191.752 153.197L193.95 170.806L191.345 171.131L188.88 151.378L201.008 149.865ZM191.878 159.174L197.264 158.502C198.711 158.322 199.963 158.413 201.018 158.778C202.073 159.133 202.912 159.712 203.536 160.516C204.16 161.32 204.545 162.306 204.691 163.472C204.799 164.341 204.754 165.155 204.554 165.914C204.354 166.665 204.002 167.343 203.499 167.947C202.995 168.543 202.345 169.037 201.549 169.431C200.752 169.815 199.811 170.075 198.725 170.21L191.345 171.131L188.88 151.378L191.498 151.052L193.697 168.675L198.459 168.08C199.427 167.959 200.187 167.685 200.74 167.258C201.301 166.821 201.686 166.295 201.894 165.681C202.102 165.068 202.165 164.431 202.082 163.77C202 163.11 201.784 162.522 201.435 162.005C201.086 161.488 200.588 161.105 199.941 160.855C199.302 160.595 198.499 160.525 197.532 160.646L192.146 161.318L191.878 159.174ZM222.852 156.535L223.008 157.783C223.193 159.266 223.174 160.619 222.949 161.841C222.725 163.063 222.316 164.129 221.723 165.039C221.129 165.949 220.371 166.682 219.448 167.238C218.535 167.793 217.476 168.146 216.274 168.296C215.107 168.441 214.008 168.358 212.977 168.046C211.955 167.732 211.035 167.209 210.218 166.475C209.41 165.74 208.738 164.809 208.203 163.682C207.667 162.554 207.306 161.249 207.121 159.766L206.966 158.518C206.78 157.034 206.805 155.686 207.039 154.472C207.281 153.247 207.704 152.18 208.307 151.268C208.908 150.348 209.666 149.611 210.579 149.056C211.502 148.5 212.547 148.149 213.713 148.003C214.916 147.853 216.029 147.935 217.051 148.248C218.082 148.56 218.997 149.089 219.798 149.834C220.606 150.569 221.269 151.502 221.786 152.631C222.312 153.75 222.667 155.052 222.852 156.535ZM220.417 158.107L220.258 156.831C220.111 155.655 219.859 154.631 219.502 153.757C219.154 152.882 218.711 152.165 218.173 151.608C217.635 151.05 217.011 150.655 216.302 150.422C215.603 150.188 214.832 150.123 213.991 150.228C213.177 150.33 212.46 150.58 211.839 150.979C211.227 151.377 210.725 151.913 210.331 152.586C209.947 153.259 209.684 154.063 209.544 154.999C209.404 155.935 209.407 156.991 209.553 158.167L209.713 159.442C209.86 160.627 210.118 161.661 210.485 162.542C210.851 163.415 211.309 164.134 211.857 164.7C212.413 165.255 213.036 165.65 213.727 165.885C214.427 166.12 215.184 166.186 215.998 166.084C216.848 165.978 217.583 165.726 218.204 165.327C218.825 164.928 219.323 164.393 219.698 163.721C220.082 163.039 220.334 162.232 220.457 161.298C220.578 160.355 220.565 159.291 220.417 158.107ZM239.58 153.676L239.846 155.806L229.155 157.14L228.889 155.01L239.58 153.676ZM228.237 146.466L230.702 166.219L228.083 166.546L225.618 146.793L228.237 146.466ZM240.799 144.899L243.264 164.652L240.66 164.977L238.194 145.224L240.799 144.899ZM253.219 156.755L256.794 142.902L259.806 142.526L254.873 159.855C254.732 160.341 254.566 160.816 254.376 161.281C254.185 161.736 253.934 162.154 253.623 162.532C253.312 162.911 252.906 163.232 252.407 163.497C251.916 163.76 251.286 163.94 250.517 164.036C250.3 164.063 250.041 164.081 249.739 164.092C249.438 164.111 249.241 164.112 249.147 164.097L248.968 161.997C249.07 162.003 249.266 161.997 249.558 161.979C249.849 161.951 250.062 161.929 250.197 161.913C250.713 161.848 251.107 161.693 251.379 161.448C251.652 161.203 251.859 160.911 252 160.572C252.15 160.222 252.28 159.871 252.392 159.517L253.219 156.755ZM247.135 144.108L254.165 155.727L255.119 158.074L252.942 158.511L244.204 144.474L247.135 144.108ZM276.207 154.161L278.812 153.836C278.832 155.101 278.614 156.263 278.158 157.321C277.703 158.379 276.982 159.263 275.996 159.974C275.009 160.676 273.724 161.126 272.141 161.323C270.983 161.468 269.902 161.382 268.899 161.067C267.904 160.75 267.018 160.236 266.24 159.525C265.461 158.804 264.816 157.907 264.306 156.831C263.803 155.746 263.465 154.511 263.292 153.128L263.047 151.16C262.874 149.777 262.899 148.501 263.12 147.335C263.35 146.158 263.758 145.124 264.345 144.233C264.941 143.341 265.701 142.618 266.623 142.061C267.546 141.505 268.618 141.151 269.839 140.999C271.331 140.813 272.628 140.936 273.729 141.368C274.83 141.8 275.727 142.478 276.421 143.401C277.123 144.315 277.623 145.414 277.921 146.7L275.317 147.025C275.075 146.118 274.741 145.356 274.315 144.739C273.888 144.113 273.335 143.658 272.657 143.375C271.978 143.092 271.128 143.015 270.106 143.142C269.229 143.252 268.476 143.516 267.849 143.934C267.23 144.351 266.733 144.895 266.358 145.567C265.992 146.237 265.749 147.016 265.63 147.903C265.511 148.791 265.517 149.759 265.648 150.808L265.897 152.802C266.018 153.77 266.231 154.667 266.536 155.492C266.85 156.316 267.255 157.024 267.751 157.614C268.247 158.204 268.84 158.644 269.528 158.935C270.216 159.217 270.998 159.303 271.875 159.193C272.988 159.054 273.852 158.768 274.468 158.332C275.084 157.897 275.519 157.329 275.771 156.627C276.032 155.924 276.178 155.102 276.207 154.161ZM283.819 147.7L289.205 147.028C290.652 146.847 291.904 146.939 292.959 147.303C294.014 147.658 294.853 148.238 295.477 149.042C296.101 149.846 296.486 150.831 296.632 151.998C296.74 152.866 296.695 153.68 296.495 154.44C296.295 155.19 295.944 155.868 295.44 156.473C294.936 157.068 294.286 157.563 293.49 157.956C292.693 158.34 291.752 158.6 290.666 158.736L283.286 159.657L280.821 139.904L283.439 139.577L285.639 157.2L290.4 156.606C291.368 156.485 292.128 156.211 292.681 155.784C293.242 155.346 293.627 154.821 293.835 154.207C294.043 153.593 294.106 152.956 294.023 152.296C293.941 151.636 293.725 151.047 293.376 150.53C293.027 150.014 292.529 149.63 291.882 149.38C291.244 149.12 290.44 149.05 289.473 149.171L284.087 149.843L283.819 147.7ZM299.909 137.522L302.374 157.275L299.756 157.601L297.291 137.848L299.909 137.522Z" fill="white"/>
<rect x="42.6987" y="9" width="403" height="53" rx="26.5" transform="rotate(5.08607 42.6987 9)" fill="#4B79A5"/>
<path d="M85.3902 42.3123L91.8124 29.5286L94.8356 29.7977L86.3521 45.6922C86.1112 46.1374 85.8488 46.567 85.5648 46.981C85.2817 47.3859 84.9482 47.7405 84.5642 48.0449C84.1803 48.3493 83.7161 48.5779 83.1718 48.7308C82.6365 48.8845 81.983 48.927 81.2114 48.8583C80.9935 48.8389 80.7359 48.8022 80.4388 48.7483C80.1408 48.7035 79.9476 48.6634 79.8592 48.6281L80.1276 46.5382C80.2259 46.5653 80.4194 46.6008 80.7083 46.6448C80.998 46.6797 81.211 46.7033 81.3472 46.7154C81.8647 46.7614 82.2825 46.6934 82.6007 46.5113C82.9189 46.3291 83.1829 46.0872 83.3927 45.7857C83.6125 45.4758 83.8145 45.1598 83.9987 44.8376L85.3902 42.3123ZM82.1164 28.6656L86.5324 41.5081L86.9691 44.0039L84.7484 43.971L79.1749 28.4038L82.1164 28.6656ZM110.16 39.754L109.97 41.892L99.2385 40.9369L99.4288 38.7989L110.16 39.754ZM100.596 30.3104L98.8313 50.1383L96.203 49.9043L97.9678 30.0765L100.596 30.3104ZM113.206 31.4327L111.442 51.2606L108.827 51.0279L110.592 31.2L113.206 31.4327ZM119.255 47.3715L130.379 32.9611L133.007 33.195L131.242 53.0229L128.614 52.789L129.975 37.4959L118.85 51.92L116.235 51.6872L118 31.8594L120.615 32.0921L119.255 47.3715ZM140.538 33.8653L138.773 53.6932L136.145 53.4592L137.909 33.6314L140.538 33.8653ZM152.753 34.9525L143.176 45.0945L138.518 44.68L138.304 42.4648L141.804 42.7763L149.498 34.6628L152.753 34.9525ZM148.347 54.5452L141.722 44.622L143.397 42.4514L151.56 54.8313L148.347 54.5452ZM162.892 37.6255L154.72 55.1125L152.037 54.8737L161.36 35.7185L163.089 35.8724L162.892 37.6255ZM166.785 56.1863L161.816 37.5298L161.932 35.7694L163.661 35.9233L169.482 56.4263L166.785 56.1863ZM167.098 48.8159L166.907 50.9676L155.767 49.9761L155.959 47.8245L167.098 48.8159ZM186.894 37.9911L186.702 40.1427L177.632 39.3355L177.824 37.1839L186.894 37.9911ZM189.154 38.1923L187.389 58.0202L184.761 57.7862L186.526 37.9584L189.154 38.1923ZM176.925 37.1039L179.54 37.3366L178.226 47.0063C178.038 48.3987 177.818 49.6373 177.566 50.7221C177.324 51.7986 177.031 52.7288 176.686 53.5125C176.343 54.2872 175.93 54.9185 175.447 55.4062C174.965 55.8849 174.395 56.2231 173.737 56.4208C173.088 56.6192 172.323 56.6792 171.443 56.6009L170.735 56.5378L170.925 54.3998L171.473 54.4074C171.985 54.4164 172.431 54.3417 172.811 54.1833C173.201 54.0167 173.541 53.745 173.831 53.3682C174.129 52.9921 174.389 52.4936 174.609 51.8727C174.829 51.2517 175.025 50.4868 175.197 49.5779C175.38 48.6608 175.553 47.5873 175.717 46.3574L176.925 37.1039ZM195.095 46.8605L200.501 47.3417C201.954 47.4709 203.157 47.8251 204.112 48.4043C205.068 48.9743 205.766 49.7182 206.206 50.6358C206.646 51.5534 206.814 52.5978 206.71 53.7689C206.632 54.6405 206.416 55.4265 206.061 56.1269C205.706 56.8183 205.219 57.4063 204.6 57.8911C203.981 58.3667 203.241 58.7126 202.38 58.9288C201.519 59.1359 200.544 59.191 199.455 59.094L192.047 58.4347L193.812 38.6068L196.44 38.8407L194.865 56.5306L199.645 56.956C200.617 57.0425 201.418 56.9353 202.049 56.6346C202.689 56.3256 203.176 55.8931 203.509 55.3371C203.842 54.7811 204.038 54.1717 204.097 53.509C204.156 52.8462 204.07 52.2254 203.838 51.6466C203.605 51.0677 203.2 50.5878 202.621 50.2069C202.051 49.8176 201.281 49.5798 200.31 49.4933L194.903 49.0121L195.095 46.8605ZM223.598 49.8503L223.408 51.9883L212.677 51.0333L212.867 48.8952L223.598 49.8503ZM214.034 40.4067L212.27 60.2346L209.641 60.0006L211.406 40.1728L214.034 40.4067ZM226.645 41.529L224.88 61.3569L222.265 61.1242L224.03 41.2963L226.645 41.529ZM232.721 50.2093L238.128 50.6905C239.58 50.8198 240.784 51.174 241.739 51.7532C242.695 52.3232 243.393 53.067 243.833 53.9847C244.273 54.9023 244.44 55.9466 244.336 57.1178C244.259 57.9894 244.042 58.7754 243.687 59.4758C243.333 60.1672 242.846 60.7552 242.226 61.2399C241.607 61.7156 240.867 62.0615 240.006 62.2777C239.146 62.4848 238.171 62.5399 237.082 62.4429L229.673 61.7835L231.438 41.9557L234.067 42.1896L232.492 59.8794L237.272 60.3049C238.243 60.3913 239.044 60.2842 239.675 59.9834C240.316 59.6744 240.803 59.2419 241.136 58.686C241.469 58.13 241.665 57.5206 241.724 56.8579C241.783 56.1951 241.696 55.5743 241.464 54.9955C241.232 54.4166 240.826 53.9367 240.247 53.5557C239.678 53.1665 238.908 52.9286 237.936 52.8422L232.53 52.361L232.721 50.2093ZM250.599 43.661L248.834 63.4889L246.206 63.255L247.971 43.4271L250.599 43.661ZM266.469 62.9035L266.279 65.0415L255.779 64.107L255.97 61.969L266.469 62.9035ZM258.075 44.3264L256.31 64.1543L253.682 63.9204L255.447 44.0925L258.075 44.3264ZM265.896 53.6149L265.705 55.7529L256.595 54.9421L256.785 52.8041L265.896 53.6149ZM267.907 45.2015L267.716 47.3532L257.353 46.4308L257.544 44.2792L267.907 45.2015ZM283.179 59.916L289.601 47.1323L292.624 47.4014L284.141 63.2959C283.9 63.7411 283.637 64.1707 283.353 64.5847C283.07 64.9895 282.737 65.3442 282.353 65.6486C281.969 65.953 281.505 66.1816 280.96 66.3345C280.425 66.4882 279.772 66.5307 279 66.462C278.782 66.4426 278.524 66.4059 278.227 66.352C277.929 66.3072 277.736 66.2671 277.648 66.2318L277.916 64.1419C278.014 64.169 278.208 64.2045 278.497 64.2485C278.787 64.2834 278.999 64.307 279.136 64.3191C279.653 64.3651 280.071 64.2971 280.389 64.115C280.707 63.9328 280.971 63.6909 281.181 63.3893C281.401 63.0795 281.603 62.7635 281.787 62.4413L283.179 59.916ZM279.905 46.2693L284.321 59.1118L284.758 61.6076L282.537 61.5747L276.963 46.0075L279.905 46.2693ZM306.196 62.2392L308.811 62.4719C308.563 63.7126 308.105 64.8019 307.436 65.7398C306.766 66.6776 305.875 67.3898 304.761 67.8763C303.648 68.3537 302.297 68.5217 300.708 68.3803C299.546 68.2769 298.508 67.9649 297.593 67.4443C296.688 66.9245 295.93 66.2348 295.321 65.3753C294.712 64.5067 294.271 63.4929 293.999 62.334C293.737 61.1669 293.668 59.8888 293.791 58.4997L293.967 56.5251C294.091 55.1361 294.384 53.8948 294.847 52.8014C295.321 51.6997 295.938 50.7755 296.7 50.0289C297.471 49.2832 298.366 48.736 299.386 48.3875C300.405 48.039 301.527 47.9193 302.753 48.0284C304.251 48.1617 305.492 48.5558 306.477 49.2108C307.462 49.8658 308.196 50.7181 308.679 51.7677C309.172 52.809 309.428 53.9893 309.448 55.3088L306.834 55.0761C306.789 54.1387 306.624 53.3233 306.338 52.6299C306.052 51.9274 305.608 51.3662 305.005 50.9465C304.402 50.5268 303.587 50.2713 302.561 50.18C301.681 50.1016 300.89 50.2005 300.188 50.4766C299.495 50.7535 298.894 51.1805 298.386 51.7574C297.886 52.3352 297.484 53.0452 297.18 53.8875C296.877 54.7298 296.678 55.6775 296.584 56.7306L296.406 58.7324C296.319 59.7039 296.338 60.6252 296.462 61.4963C296.595 62.3683 296.841 63.1452 297.202 63.8269C297.562 64.5087 298.048 65.0644 298.659 65.494C299.271 65.9145 300.018 66.1639 300.899 66.2423C302.015 66.3417 302.921 66.2439 303.615 65.9488C304.309 65.6537 304.854 65.1897 305.249 64.5569C305.653 63.9248 305.968 63.1523 306.196 62.2392ZM326.342 50.4024L326.151 52.554L317.081 51.7468L317.273 49.5952L326.342 50.4024ZM328.603 50.6036L326.838 70.4315L324.21 70.1975L325.975 50.3697L328.603 50.6036ZM316.374 49.5152L318.989 49.7479L317.675 59.4176C317.487 60.81 317.267 62.0486 317.015 63.1334C316.773 64.21 316.479 65.1401 316.135 65.9239C315.792 66.6985 315.379 67.3298 314.896 67.8175C314.414 68.2962 313.844 68.6344 313.186 68.8321C312.537 69.0305 311.772 69.0905 310.892 69.0122L310.183 68.9491L310.374 66.8111L310.922 66.8187C311.434 66.8277 311.88 66.753 312.26 66.5946C312.65 66.428 312.99 66.1563 313.279 65.7795C313.578 65.4035 313.838 64.905 314.058 64.284C314.277 63.663 314.474 62.8981 314.646 61.9892C314.828 61.0721 315.002 59.9986 315.166 58.7688L316.374 49.5152ZM347.781 61.6716L347.67 62.9245C347.537 64.4134 347.232 65.7314 346.755 66.8785C346.278 68.0256 345.653 68.9811 344.88 69.745C344.108 70.509 343.212 71.0652 342.192 71.4137C341.182 71.763 340.073 71.884 338.866 71.7765C337.695 71.6723 336.638 71.3586 335.697 70.8356C334.764 70.3133 333.976 69.6072 333.332 68.7172C332.698 67.828 332.238 66.7759 331.952 65.561C331.667 64.346 331.591 62.9941 331.723 61.5052L331.835 60.2523C331.967 58.7634 332.276 57.4503 332.762 56.3131C333.257 55.1676 333.896 54.2133 334.677 53.4502C335.46 52.678 336.356 52.1172 337.366 51.7679C338.386 51.4194 339.481 51.2972 340.652 51.4015C341.859 51.5089 342.929 51.8238 343.862 52.346C344.804 52.8691 345.587 53.5793 346.212 54.4768C346.846 55.366 347.297 56.4172 347.564 57.6306C347.842 58.8357 347.914 60.1827 347.781 61.6716ZM345.069 62.693L345.183 61.4129C345.288 60.2326 345.258 59.1777 345.094 58.248C344.938 57.3191 344.657 56.5254 344.249 55.8668C343.841 55.2083 343.315 54.6902 342.671 54.3127C342.037 53.9359 341.297 53.71 340.453 53.6348C339.636 53.5621 338.882 53.6551 338.191 53.9139C337.509 54.1735 336.905 54.5909 336.378 55.1663C335.86 55.7424 335.433 56.4731 335.098 57.3583C334.763 58.2436 334.543 59.2763 334.438 60.4566L334.324 61.7367C334.218 62.926 334.252 63.9904 334.424 64.93C334.598 65.8605 334.892 66.6599 335.309 67.3284C335.735 67.9886 336.261 68.5066 336.886 68.8826C337.521 69.2593 338.246 69.484 339.064 69.5567C339.917 69.6327 340.689 69.5413 341.38 69.2825C342.071 69.0238 342.671 68.6059 343.18 68.0289C343.699 67.4437 344.117 66.7077 344.433 65.8208C344.751 64.9249 344.963 63.8823 345.069 62.693ZM358.672 63.9174L353.647 63.4702L353.808 61.3569L358.37 61.763C359.123 61.83 359.793 61.7615 360.378 61.5574C360.964 61.3533 361.432 61.0289 361.782 60.5843C362.143 60.1314 362.353 59.5736 362.412 58.9109C362.476 58.1846 362.388 57.5819 362.147 57.103C361.916 56.6157 361.524 56.2422 360.97 55.9825C360.427 55.7145 359.719 55.5417 358.848 55.4642L354.98 55.1199L353.407 72.7962L350.779 72.5622L352.543 52.7344L359.039 53.3125C360.056 53.403 360.955 53.5882 361.735 53.8681C362.516 54.139 363.164 54.5169 363.679 55.002C364.204 55.4788 364.582 56.0615 364.814 56.7501C365.045 57.4387 365.12 58.246 365.038 59.172C364.965 59.9891 364.69 60.7104 364.214 61.336C363.738 61.9525 363.109 62.4364 362.327 62.7878C361.555 63.14 360.669 63.331 359.669 63.361L358.672 63.9174ZM357.724 73.1804L351.787 72.6519L353.461 70.646L357.914 71.0423C358.749 71.1167 359.471 71.0345 360.077 70.7956C360.693 70.5577 361.179 70.1891 361.535 69.69C361.891 69.1818 362.102 68.5646 362.166 67.8383C362.232 67.1029 362.157 66.4557 361.941 65.8966C361.725 65.3376 361.349 64.8877 360.812 64.5471C360.275 64.2065 359.562 63.9966 358.672 63.9174L354.927 63.5841L355.142 61.4757L360.262 61.9314L360.753 62.7437C361.699 62.9103 362.483 63.2546 363.104 63.7766C363.727 64.2895 364.179 64.9154 364.461 65.6542C364.752 66.3939 364.859 67.1904 364.783 68.0438C364.673 69.2785 364.308 70.2983 363.687 71.1032C363.077 71.8999 362.261 72.477 361.241 72.8346C360.222 73.1831 359.049 73.2984 357.724 73.1804ZM371.297 69.804L382.421 55.3936L385.05 55.6275L383.285 75.4554L380.657 75.2215L382.018 59.9284L370.893 74.3524L368.278 74.1197L370.043 54.2918L372.657 54.5246L371.297 69.804ZM399.756 69.1387L394.186 68.643L392.939 67.9967C391.545 67.4151 390.504 66.6224 389.816 65.6186C389.128 64.6058 388.846 63.4003 388.971 62.0022C389.085 60.7221 389.463 59.6622 390.105 58.8226C390.756 57.9838 391.624 57.3793 392.709 57.0093C393.804 56.64 395.068 56.5192 396.503 56.6468L402.849 57.2116L401.084 77.0395L398.456 76.8056L400.029 59.1294L396.311 58.7985C394.858 58.6692 393.734 58.9168 392.937 59.5414C392.149 60.1667 391.703 61.0649 391.599 62.2361C391.531 62.9987 391.629 63.6937 391.894 64.3212C392.167 64.9495 392.607 65.4644 393.211 65.866C393.816 66.2675 394.591 66.5103 395.535 66.5944L399.961 66.9883L399.756 69.1387ZM395.41 67.3794L389.781 76.0335L386.989 75.7851L392.755 67.143L395.41 67.3794Z" fill="white"/>
</svg>
