<svg width="282" height="282" viewBox="0 0 282 282" fill="none" xmlns="http://www.w3.org/2000/svg">
<path d="M162.662 141.009L282 128.728L162.321 137.164L277.731 104.404L161.369 133.592L269.277 81.1522L159.787 130.208L256.911 59.7713L157.61 127.112L241.075 40.9248L154.905 124.39L222.229 25.089L151.793 122.213L200.848 12.7231L148.408 120.631L177.596 4.26938L144.836 119.679L153.272 0L141.009 119.338L128.728 0L137.164 119.679L104.404 4.26938L133.592 120.631L81.1522 12.7231L130.208 122.213L59.7713 25.089L127.112 124.39L40.9248 40.9248L124.39 127.112L25.089 59.7883L122.213 130.208L12.7231 81.1522L120.631 133.592L4.26938 104.404L119.679 137.164L0 128.728L119.338 141.009L0 153.272L119.679 144.836L4.26938 177.596L120.631 148.408L12.7231 200.865L122.213 151.793L25.089 222.229L124.39 154.905L40.9248 241.075L127.112 157.61L59.7883 256.911L130.208 159.787L81.1522 269.277L133.592 161.369L104.404 277.731L137.164 162.321L128.728 282L141.009 162.662L153.272 282L144.836 162.321L177.596 277.731L148.408 161.369L200.865 269.277L151.793 159.787L222.229 256.911L154.905 157.61L241.075 241.075L157.61 154.905L256.911 222.229L159.787 151.793L269.277 200.848L161.369 148.408L277.731 177.596L162.321 144.836L282 153.272L162.662 141.009Z" fill="#333333"/>
</svg>
