<svg width="258" height="256" viewBox="0 0 258 256" fill="none" xmlns="http://www.w3.org/2000/svg">
<g clip-path="url(#clip0_122_3648)">
<path d="M250.147 127.396C261.532 124.571 260.16 108.06 248.46 107.134C238.605 106.365 235.341 93.5732 243.651 88.2212C253.506 81.8805 246.805 66.6878 235.451 69.607C225.864 72.0711 218.627 61.0219 224.729 53.2843C231.982 44.1028 220.692 31.9078 210.9 38.327C202.638 43.7418 192.183 35.6432 195.432 26.3518C199.295 15.3183 184.646 7.42371 177.472 16.6837C171.432 24.4841 158.897 20.1994 158.944 10.343C158.991 -1.33406 142.561 -4.06498 138.808 6.99995C135.638 16.3227 122.377 16.3227 119.208 6.99995C115.439 -4.06498 99.0088 -1.33406 99.0719 10.343C99.1192 20.1837 86.5834 24.4684 80.5442 16.6837C73.3854 7.4394 58.7209 15.334 62.5842 26.3518C65.8324 35.6589 55.3781 43.7575 47.1155 38.327C37.3234 31.8921 26.0334 44.1028 33.2868 53.2843C39.4048 61.0219 32.1515 72.0711 22.5644 69.607C11.1955 66.6878 4.50972 81.8805 14.3649 88.2212C22.6747 93.5732 19.4107 106.365 9.55556 107.134C-2.14448 108.044 -3.51632 124.571 7.86835 127.396C17.4712 129.766 18.5592 142.918 9.49248 146.842C-1.27723 151.487 2.82251 167.559 14.5068 166.539C24.3619 165.676 29.6916 177.761 22.3751 184.4C13.7026 192.279 22.8167 206.153 33.5391 201.413C42.5743 197.411 51.5622 207.126 46.8159 215.758C41.1867 226.007 54.3374 236.193 62.9311 228.236C70.1845 221.534 81.8372 227.812 80.1657 237.511C78.179 249.016 93.9472 254.399 99.4818 244.119C104.149 235.44 117.221 237.606 118.814 247.336C120.69 258.856 137.357 258.856 139.234 247.336C140.826 237.621 153.898 235.44 158.565 244.119C164.1 254.415 179.868 249.031 177.882 237.527C176.21 227.828 187.863 221.55 195.116 228.251C203.71 236.193 216.861 226.007 211.231 215.774C206.485 207.142 215.457 197.427 224.508 201.429C235.231 206.169 244.345 192.279 235.672 184.415C228.371 177.776 233.685 165.691 243.541 166.555C255.225 167.575 259.325 151.503 248.555 146.857C239.472 142.934 240.576 129.797 250.179 127.411L250.147 127.396ZM129 233.933C70.216 233.933 22.5644 186.503 22.5644 127.992C22.5644 69.4815 70.216 22.0514 129 22.0514C187.784 22.0514 235.436 69.4815 235.436 127.992C235.436 186.503 187.784 233.933 129 233.933Z" fill="#4F4F4F"/>
</g>
<defs>
<clipPath id="clip0_122_3648">
<rect width="258" height="256" fill="white"/>
</clipPath>
</defs>
</svg>
