<svg width="246" height="236" viewBox="0 0 246 236" fill="none" xmlns="http://www.w3.org/2000/svg">
<g clip-path="url(#clip0_122_3669)">
<path d="M70.7886 208.327C75.3392 189.02 63.3983 169.675 44.1178 165.119C24.8374 160.562 5.51851 172.519 0.967917 191.825C-3.58268 211.132 8.35821 230.477 27.6387 235.034C46.9191 239.591 66.238 227.634 70.7886 208.327Z" fill="#3A3A3A"/>
<path d="M157.91 208.312C162.461 189.005 150.52 169.66 131.239 165.103C111.959 160.546 92.6402 172.503 88.0896 191.81C83.539 211.117 95.4799 230.462 114.76 235.018C134.041 239.575 153.36 227.618 157.91 208.312Z" fill="#DCE5ED"/>
<path d="M235.493 225.483C249.501 211.456 249.501 188.714 235.493 174.687C221.485 160.66 198.774 160.66 184.766 174.687C170.758 188.714 170.758 211.456 184.766 225.483C198.774 239.51 221.485 239.51 235.493 225.483Z" fill="#3A3A3A"/>
<path d="M35.8695 76.1225C55.6797 76.1225 71.739 71.1476 71.739 65.0109C71.739 58.8741 55.6797 53.8993 35.8695 53.8993C16.0593 53.8993 0 58.8741 0 65.0109C0 71.1476 16.0593 76.1225 35.8695 76.1225Z" fill="#DCE5ED"/>
<path d="M123 76.1225C142.81 76.1225 158.869 71.1476 158.869 65.0109C158.869 58.8741 142.81 53.8993 123 53.8993C103.19 53.8993 87.1305 58.8741 87.1305 65.0109C87.1305 71.1476 103.19 76.1225 123 76.1225Z" fill="#3A3A3A"/>
<path d="M210.13 76.1225C229.94 76.1225 246 71.1476 246 65.0109C246 58.8741 229.94 53.8993 210.13 53.8993C190.32 53.8993 174.261 58.8741 174.261 65.0109C174.261 71.1476 190.32 76.1225 210.13 76.1225Z" fill="#3A3A3A"/>
<path d="M35.8695 139.445C55.6797 139.445 71.739 131.783 71.739 122.33C71.739 112.878 55.6797 105.215 35.8695 105.215C16.0593 105.215 0 112.878 0 122.33C0 131.783 16.0593 139.445 35.8695 139.445Z" fill="#3A3A3A"/>
<path d="M123 139.445C142.81 139.445 158.869 131.783 158.869 122.33C158.869 112.878 142.81 105.215 123 105.215C103.19 105.215 87.1305 112.878 87.1305 122.33C87.1305 131.783 103.19 139.445 123 139.445Z" fill="#3A3A3A"/>
<path d="M210.13 139.445C229.94 139.445 246 131.783 246 122.33C246 112.878 229.94 105.215 210.13 105.215C190.32 105.215 174.261 112.878 174.261 122.33C174.261 131.783 190.32 139.445 210.13 139.445Z" fill="#DCE5ED"/>
<path d="M71.739 7.67683C71.739 11.9189 55.6732 15.3537 35.8695 15.3537C16.0658 15.3537 0 11.9042 0 7.67683C0 3.44943 16.0658 0 35.8695 0C55.6732 0 71.739 3.43476 71.739 7.67683Z" fill="#3A3A3A"/>
<path d="M158.869 7.67683C158.869 11.9189 142.804 15.3537 123 15.3537C103.196 15.3537 87.1305 11.9189 87.1305 7.67683C87.1305 3.43476 103.182 0 123 0C142.818 0 158.869 3.43476 158.869 7.67683Z" fill="#DCE5ED"/>
<path d="M246 7.67683C246 11.9189 229.934 15.3537 210.13 15.3537C190.327 15.3537 174.261 11.9189 174.261 7.67683C174.261 3.43476 190.327 0 210.13 0C229.934 0 246 3.43476 246 7.67683Z" fill="#3A3A3A"/>
</g>
<defs>
<clipPath id="clip0_122_3669">
<rect width="246" height="236" fill="white"/>
</clipPath>
</defs>
</svg>
