<svg width="43" height="43" viewBox="0 0 43 43" fill="none" xmlns="http://www.w3.org/2000/svg">
<g clip-path="url(#clip0_169_11387)">
<path d="M43 21.504L39.9882 23.9357L42.2768 27.0667L38.7326 28.6402L40.1233 32.256L36.2929 32.852L36.7062 36.7062L32.852 36.2929L32.256 40.1233L28.6402 38.7326L27.0667 42.2768L23.9357 39.9882L21.504 43L19.0643 39.9882L15.9333 42.2768L14.3678 38.7326L10.744 40.1233L10.156 36.2929L6.29385 36.7062L6.71502 32.852L2.87673 32.256L4.27536 28.6402L0.731103 27.0667L3.01977 23.9357L0 21.504L3.01977 19.0643L0.731103 15.9333L4.27536 14.3678L2.87673 10.744L6.71502 10.156L6.30179 6.29385L10.156 6.71502L10.752 2.87673L14.3678 4.27536L15.9333 0.731103L19.0643 3.01977L21.504 0L23.9357 3.01977L27.0667 0.731103L28.6402 4.27536L32.256 2.87673L32.852 6.71502L36.7062 6.30179L36.2929 10.156L40.1233 10.752L38.7326 14.3678L42.2768 15.9333L39.9882 19.0643L43 21.504Z" fill="#DCE5ED"/>
<g clip-path="url(#clip1_169_11387)">
<path d="M29.4711 17.2425H24.8529C24.7857 17.2425 24.7198 17.2485 24.6549 17.2572C25.6917 15.075 24.9983 11.783 24.9983 11.783C24.1142 10.3222 23.0618 11.3533 23.0618 11.3533C22.5987 11.9548 22.6828 13.2867 22.6828 13.2867C22.7165 14.4855 20.1011 16.8039 19.039 17.6949C18.7604 17.9286 18.5993 18.2765 18.5993 18.6446V26.4339C18.5993 27.7627 19.6548 28.84 20.9569 28.84H27.939C28.7066 28.84 29.3912 28.2835 29.501 27.5081C29.5891 26.8859 29.3103 26.3185 28.8542 25.9963C29.592 25.8867 30.1638 25.236 30.1638 24.454C30.1638 23.8896 29.8653 23.3942 29.4224 23.1202C30.047 22.9239 30.5045 22.3282 30.5045 21.6286C30.5045 21.0838 30.2268 20.6028 29.8093 20.3235C30.4887 20.1651 31.0001 19.5427 31.0001 18.803C31.0001 17.9447 30.3121 17.2426 29.4712 17.2426L29.4711 17.2425Z" fill="#517AA4"/>
<path d="M13.6197 17.1965H17.1375C17.4795 17.1965 17.7572 17.4799 17.7572 17.829V29.3674C17.7572 29.7165 17.4795 30 17.1373 30H13.6197C13.2777 30 13 29.7166 13 29.3675V17.829C13 17.4799 13.2777 17.1965 13.6197 17.1965Z" fill="#517AA4"/>
</g>
</g>
<defs>
<clipPath id="clip0_169_11387">
<rect width="43" height="43" fill="white"/>
</clipPath>
<clipPath id="clip1_169_11387">
<rect width="18" height="19" fill="white" transform="translate(13 11)"/>
</clipPath>
</defs>
</svg>
