<svg width="154" height="37" viewBox="0 0 154 37" fill="none" xmlns="http://www.w3.org/2000/svg">
<path d="M39.4139 0V37H84.4381V0H39.4139Z" fill="#993399"/>
<path d="M0 0V37H37V0H0Z" fill="#993399"/>
<path d="M55.4765 23.7461C55.4765 24.4301 54.9406 24.9895 54.2778 24.9895C53.6174 24.9895 53.0791 24.4324 53.0791 23.7461V17.0428L50.7757 23.9294C50.5736 24.5335 49.939 24.9895 49.302 24.9895H49.2926C48.6557 24.9895 48.0211 24.5335 47.8189 23.9294L45.5155 17.0428V23.7485C45.5155 24.4324 44.9773 24.9918 44.3168 24.9918C43.6564 24.9918 43.1181 24.4348 43.1181 23.7485V13.2939C43.1181 12.6099 43.6728 12.0529 44.3591 12.0529H45.076C45.713 12.0529 46.3452 12.5089 46.5474 13.1129L49.2973 21.2876L52.0449 13.1129C52.2494 12.5089 52.884 12.0529 53.5186 12.0529H54.2355C54.9195 12.0529 55.4765 12.6099 55.4765 13.2939V23.7461ZM66.8854 14.415H63.6888V23.8542C63.6888 24.5923 63.214 25.0882 62.5066 25.0882C61.7968 25.0882 61.322 24.5923 61.322 23.8542V14.415H58.1278C57.4297 14.415 56.962 13.9591 56.962 13.2821C56.962 12.6029 57.4297 12.1492 58.1278 12.1492H66.883C67.5811 12.1492 68.0512 12.6029 68.0512 13.2821C68.0535 13.9591 67.5834 14.415 66.8854 14.415ZM79.5705 14.415H76.3786V23.8542C76.3786 24.5923 75.9039 25.0882 75.194 25.0882C74.4866 25.0882 74.0118 24.5923 74.0118 23.8542V14.415H70.8176C70.1195 14.415 69.6518 13.9591 69.6518 13.2821C69.6518 12.6029 70.1195 12.1492 70.8176 12.1492H79.5728C80.2732 12.1492 80.741 12.6029 80.741 13.2821C80.7386 13.9591 80.2709 14.415 79.5705 14.415Z" fill="white"/>
<path d="M7.67645 16.5374C9.23006 15.5409 10.5486 15.2024 11.7027 15.5009C12.899 15.8112 13.9144 16.7772 14.8052 18.453C14.9768 18.7797 15.1742 19.1017 15.3881 19.419C17.4776 22.5027 21.3323 24.745 24.7639 24.8743C26.7241 24.9495 28.2942 24.322 29.3025 23.0621C29.232 22.2536 29.333 21.4991 29.608 20.8011C29.7161 20.5308 29.8478 20.2675 30.0076 20.0137C30.2685 19.6023 30.4871 19.1675 30.6657 18.7139C31.5283 16.5327 31.4484 13.9402 30.4025 11.3947C29.702 9.68836 28.6256 8.61658 27.9204 7.91146C27.0696 7.18988 25.979 6.47066 24.3267 6.52472C24.9871 7.81274 25.3162 9.37106 25.2128 11.3172C25.0647 14.0295 23.584 16.9252 21.7342 18.1968C20.7823 18.8479 19.7998 19.0312 18.8949 18.7256C16.521 17.9218 15.8652 16.8265 15.2306 15.7688C15.0755 15.5126 14.9298 15.2659 14.7582 15.0285L14.7606 15.0261C14.7559 15.0191 14.7512 15.0144 14.7464 15.0073C14.0131 14.1165 13.6089 13.7404 12.2691 13.3315C9.85057 12.5911 7.91854 13.496 6.8209 15.8746C7.00893 15.9404 7.4085 16.1214 7.67645 16.5374Z" fill="white"/>
<path d="M3.7442 17.212C4.74547 17.6586 6.55058 18.2462 7.37322 18.9137C7.50719 18.6222 7.60591 18.3472 7.66702 18.0934C7.01596 17.2637 4.47283 17.1979 3.7442 17.212Z" fill="white"/>
<path d="M18.949 18.5517C19.7975 18.8385 20.7235 18.6622 21.6284 18.0464C23.5182 16.749 24.926 13.8204 25.053 10.92C24.2162 8.83046 22.4675 8.51315 21.8071 8.47085C21.8987 8.92917 22.1385 10.5557 21.4404 12.8872C20.9116 14.6547 19.3673 15.9757 17.9524 16.2648C17.2543 16.4058 16.286 16.3776 15.3482 15.6137C15.9029 16.5233 16.6409 17.769 18.949 18.5517Z" fill="white"/>
<path d="M7.71405 17.8677C7.78456 17.4446 7.74695 17.078 7.59888 16.7724C7.34503 16.2459 6.8303 16.065 6.70102 16.0297C6.41663 16.1684 4.25426 16.7748 3.73247 17.0286C4.45404 17.0098 6.95487 17.0686 7.71405 17.8677Z" fill="white"/>
<path d="M30.339 26.2775C29.782 25.2245 29.4435 24.235 29.3236 23.3113C28.2753 24.5264 26.7029 25.1281 24.7521 25.0529C21.297 24.9237 17.4212 22.6837 15.2894 19.5977C14.133 21.9622 11.5499 22.2959 10.8213 22.3406C13.2398 24.9895 15.5526 27.4527 19.412 27.2083C20.2793 27.1518 21.2124 26.9544 22.1808 26.6207C24.3643 25.8685 26.3245 25.8638 27.8476 26.6065C29.0322 27.1847 29.9018 28.1884 30.3719 29.5093C31.6012 29.4529 32.5296 29.8054 33.284 30.2802C32.2851 29.2037 31.1475 27.8006 30.339 26.2775Z" fill="white"/>
<path d="M15.1719 19.4237C14.9791 19.1323 14.8005 18.8361 14.643 18.5376C13.7898 16.9299 12.7862 15.9663 11.658 15.6748C10.551 15.3904 9.27705 15.7242 7.76339 16.6949C8.04779 17.2895 7.96553 18.0746 7.51895 19.0288C8.66125 19.9808 9.67192 21.0807 10.6638 22.1666C11.014 22.1596 13.9755 22.0162 15.1719 19.4237ZM11.8977 18.2509C11.7168 18.7115 11.195 18.9372 10.7343 18.7538C10.2736 18.5729 10.0456 18.0511 10.229 17.588C10.4123 17.1274 10.9317 16.9017 11.3924 17.0851C11.8554 17.2684 12.0811 17.7902 11.8977 18.2509Z" fill="white"/>
<path d="M105.305 22.2139H108.356C108.259 23.3776 107.933 24.4152 107.38 25.3267C106.826 26.23 106.049 26.9421 105.048 27.4629C104.047 27.9837 102.831 28.2441 101.398 28.2441C100.3 28.2441 99.311 28.0488 98.4321 27.6582C97.5532 27.2594 96.8005 26.6979 96.1738 25.9736C95.5472 25.2412 95.0671 24.3582 94.7334 23.3247C94.4079 22.2912 94.2451 21.1356 94.2451 19.8579V18.3809C94.2451 17.1032 94.4119 15.9476 94.7456 14.9141C95.0874 13.8805 95.5757 12.9976 96.2104 12.2651C96.8452 11.5246 97.6061 10.959 98.4932 10.5684C99.3883 10.1777 100.393 9.98242 101.508 9.98242C102.924 9.98242 104.121 10.2428 105.097 10.7637C106.074 11.2845 106.831 12.0047 107.368 12.9243C107.913 13.8439 108.247 14.8978 108.369 16.0859H105.317C105.236 15.321 105.056 14.6659 104.78 14.1206C104.511 13.5754 104.112 13.1603 103.583 12.8755C103.055 12.5825 102.363 12.436 101.508 12.436C100.808 12.436 100.198 12.5662 99.6772 12.8267C99.1564 13.0871 98.721 13.4696 98.3711 13.9741C98.0212 14.4787 97.7567 15.1012 97.5776 15.8418C97.4067 16.5742 97.3213 17.4124 97.3213 18.3564V19.8579C97.3213 20.7531 97.3986 21.5669 97.5532 22.2993C97.716 23.0236 97.9601 23.6462 98.2856 24.167C98.6193 24.6878 99.0425 25.0907 99.5552 25.3755C100.068 25.6603 100.682 25.8027 101.398 25.8027C102.269 25.8027 102.973 25.6644 103.51 25.3877C104.056 25.111 104.466 24.7082 104.743 24.1792C105.028 23.6421 105.215 22.987 105.305 22.2139Z" fill="#993399"/>
<path d="M122.272 25.5708V28H113.349V25.5708H122.272ZM114.204 10.2266V28H111.14V10.2266H114.204Z" fill="#993399"/>
<path d="M134.101 10.2266H137.153V22.104C137.153 23.4549 136.86 24.5861 136.274 25.4976C135.688 26.409 134.89 27.0967 133.881 27.5605C132.88 28.0163 131.761 28.2441 130.524 28.2441C129.247 28.2441 128.107 28.0163 127.106 27.5605C126.105 27.0967 125.316 26.409 124.738 25.4976C124.169 24.5861 123.884 23.4549 123.884 22.104V10.2266H126.936V22.104C126.936 22.9585 127.082 23.6624 127.375 24.2158C127.668 24.7611 128.083 25.1639 128.62 25.4243C129.157 25.6847 129.792 25.8149 130.524 25.8149C131.257 25.8149 131.888 25.6847 132.417 25.4243C132.954 25.1639 133.369 24.7611 133.662 24.2158C133.955 23.6624 134.101 22.9585 134.101 22.104V10.2266Z" fill="#993399"/>
<path d="M147.15 19.9678H142.622L142.597 17.7339H146.552C147.22 17.7339 147.785 17.6362 148.249 17.4409C148.721 17.2375 149.079 16.9486 149.323 16.5742C149.567 16.1917 149.689 15.7319 149.689 15.1948C149.689 14.6007 149.576 14.1165 149.348 13.7422C149.12 13.3678 148.77 13.0952 148.298 12.9243C147.834 12.7534 147.24 12.668 146.516 12.668H143.549V28H140.485V10.2266H146.516C147.492 10.2266 148.363 10.3201 149.128 10.5073C149.901 10.6945 150.556 10.9875 151.093 11.3862C151.639 11.7769 152.049 12.2733 152.326 12.8755C152.611 13.4777 152.753 14.1938 152.753 15.0239C152.753 15.7563 152.578 16.4277 152.229 17.0381C151.879 17.6403 151.362 18.1326 150.678 18.5151C149.995 18.8976 149.144 19.1255 148.127 19.1987L147.15 19.9678ZM147.016 28H141.657L143.037 25.5708H147.016C147.708 25.5708 148.286 25.4569 148.75 25.229C149.213 24.993 149.559 24.6715 149.787 24.2646C150.023 23.8496 150.141 23.3654 150.141 22.812C150.141 22.2342 150.039 21.7337 149.836 21.3105C149.632 20.8792 149.311 20.5496 148.872 20.3218C148.432 20.0858 147.858 19.9678 147.15 19.9678H143.708L143.732 17.7339H148.212L148.908 18.5762C149.885 18.6087 150.686 18.8244 151.313 19.2231C151.948 19.6219 152.42 20.1387 152.729 20.7734C153.038 21.4082 153.193 22.0918 153.193 22.8242C153.193 23.9554 152.945 24.9035 152.448 25.6685C151.96 26.4334 151.256 27.0153 150.336 27.4141C149.417 27.8047 148.31 28 147.016 28Z" fill="#993399"/>
</svg>
