<svg width="85" height="37" viewBox="0 0 85 37" fill="none" xmlns="http://www.w3.org/2000/svg">
<path d="M39.4139 0V37H84.4382V0H39.4139Z" fill="#993399"/>
<path d="M0 0V37H37V0H0Z" fill="#993399"/>
<path d="M55.4764 23.7461C55.4764 24.4301 54.9406 24.9895 54.2777 24.9895C53.6173 24.9895 53.079 24.4324 53.079 23.7461V17.0428L50.7756 23.9294C50.5735 24.5335 49.9389 24.9895 49.3019 24.9895H49.2925C48.6556 24.9895 48.021 24.5335 47.8188 23.9294L45.5154 17.0428V23.7484C45.5154 24.4324 44.9772 24.9918 44.3167 24.9918C43.6563 24.9918 43.118 24.4348 43.118 23.7484V13.2939C43.118 12.6099 43.6727 12.0529 44.3591 12.0529H45.0759C45.7129 12.0529 46.3451 12.5088 46.5473 13.1129L49.2972 21.2876L52.0449 13.1129C52.2493 12.5088 52.884 12.0529 53.5186 12.0529H54.2354C54.9194 12.0529 55.4764 12.6099 55.4764 13.2939V23.7461ZM66.8853 14.415H63.6887V23.8542C63.6887 24.5922 63.214 25.0882 62.5065 25.0882C61.7967 25.0882 61.3219 24.5922 61.3219 23.8542V14.415H58.1277C57.4296 14.415 56.9619 13.959 56.9619 13.2821C56.9619 12.6028 57.4296 12.1492 58.1277 12.1492H66.8829C67.581 12.1492 68.0511 12.6028 68.0511 13.2821C68.0534 13.959 67.5834 14.415 66.8853 14.415ZM79.5704 14.415H76.3786V23.8542C76.3786 24.5922 75.9038 25.0882 75.194 25.0882C74.4865 25.0882 74.0117 24.5922 74.0117 23.8542V14.415H70.8175C70.1194 14.415 69.6517 13.959 69.6517 13.2821C69.6517 12.6028 70.1194 12.1492 70.8175 12.1492H79.5728C80.2732 12.1492 80.7409 12.6028 80.7409 13.2821C80.7385 13.959 80.2708 14.415 79.5704 14.415Z" fill="white"/>
<path d="M7.67647 16.5374C9.23008 15.5409 10.5487 15.2024 11.7027 15.5009C12.8991 15.8111 13.9144 16.7772 14.8052 18.453C14.9768 18.7797 15.1742 19.1017 15.3881 19.419C17.4776 22.5027 21.3323 24.745 24.7639 24.8743C26.7241 24.9495 28.2942 24.322 29.3025 23.0621C29.232 22.2536 29.3331 21.4991 29.6081 20.801C29.7162 20.5308 29.8478 20.2675 30.0076 20.0137C30.2685 19.6023 30.4871 19.1675 30.6657 18.7139C31.5283 16.5327 31.4484 13.9402 30.4025 11.3947C29.7021 9.68836 28.6256 8.61658 27.9205 7.91145C27.0696 7.18988 25.979 6.47066 24.3267 6.52472C24.9872 7.81274 25.3162 9.37105 25.2128 11.3172C25.0647 14.0295 23.584 16.9252 21.7342 18.1968C20.7823 18.8479 19.7998 19.0312 18.8949 18.7256C16.521 17.9218 15.8653 16.8265 15.2307 15.7688C15.0755 15.5126 14.9298 15.2659 14.7582 15.0285L14.7606 15.0261C14.7559 15.0191 14.7512 15.0144 14.7465 15.0073C14.0131 14.1165 13.6089 13.7404 12.2692 13.3315C9.85059 12.5911 7.91856 13.496 6.82092 15.8746C7.00895 15.9404 7.40852 16.1214 7.67647 16.5374Z" fill="white"/>
<path d="M3.74414 17.212C4.74541 17.6586 6.55052 18.2462 7.37316 18.9137C7.50713 18.6222 7.60585 18.3472 7.66696 18.0934C7.0159 17.2637 4.47276 17.1979 3.74414 17.212Z" fill="white"/>
<path d="M18.949 18.5517C19.7975 18.8384 20.7235 18.6622 21.6284 18.0464C23.5181 16.7489 24.926 13.8203 25.0529 10.9199C24.2162 8.83044 22.4675 8.51313 21.807 8.47083C21.8987 8.92915 22.1385 10.5556 21.4404 12.8872C20.9115 14.6547 19.3673 15.9757 17.9524 16.2648C17.2543 16.4058 16.286 16.3776 15.3481 15.6137C15.9028 16.5233 16.6409 17.769 18.949 18.5517Z" fill="white"/>
<path d="M7.714 17.8677C7.78451 17.4446 7.74691 17.0779 7.59883 16.7724C7.34499 16.2459 6.83025 16.0649 6.70098 16.0297C6.41658 16.1683 4.25421 16.7747 3.73242 17.0286C4.45399 17.0098 6.95482 17.0685 7.714 17.8677Z" fill="white"/>
<path d="M30.339 26.2775C29.782 25.2245 29.4435 24.235 29.3236 23.3113C28.2754 24.5264 26.7029 25.1281 24.7521 25.0529C21.297 24.9237 17.4212 22.6837 15.2894 19.5977C14.133 21.9622 11.5499 22.2959 10.8213 22.3406C13.2399 24.9895 15.5526 27.4527 19.412 27.2083C20.2793 27.1518 21.2124 26.9544 22.1808 26.6207C24.3643 25.8685 26.3245 25.8638 27.8476 26.6065C29.0322 27.1847 29.9018 28.1884 30.3719 29.5093C31.6012 29.4529 32.5296 29.8054 33.2841 30.2802C32.2851 29.2037 31.1476 27.8006 30.339 26.2775Z" fill="white"/>
<path d="M15.1718 19.4237C14.9791 19.1322 14.8005 18.8361 14.643 18.5376C13.7898 16.9299 12.7862 15.9663 11.658 15.6748C10.5509 15.3904 9.27702 15.7242 7.76336 16.6949C8.04776 17.2895 7.9655 18.0746 7.51892 19.0288C8.66122 19.9807 9.67189 21.0807 10.6638 22.1666C11.014 22.1596 13.9755 22.0162 15.1718 19.4237ZM11.8977 18.2508C11.7167 18.7115 11.1949 18.9372 10.7343 18.7538C10.2736 18.5729 10.0456 18.0511 10.2289 17.588C10.4123 17.1274 10.9317 16.9017 11.3924 17.0851C11.8554 17.2684 12.081 17.7902 11.8977 18.2508Z" fill="white"/>
</svg>
